<svg width="1200" height="628" viewBox="0 0 1200 628" xmlns="http://www.w3.org/2000/svg">
  <!-- Background -->
  <rect width="1200" height="628" fill="#121820"/>
  
  <!-- Gradient top bar -->
  <rect width="1200" height="10" fill="url(#gradient)"/>
  
  <!-- Title -->
  <text x="600" y="200" font-family="Arial, sans-serif" font-size="72" font-weight="bold" text-anchor="middle" fill="white">MetaplexDAO Grants</text>
  
  <!-- Subtitle -->
  <text x="600" y="270" font-family="Arial, sans-serif" font-size="36" text-anchor="middle" fill="#b5bfcc">Cohort 1 • Managed by <tspan fill="#bcf0c0">IslandDAO</tspan></text>
  
  <!-- Stats -->
  <g>
    <text x="300" y="400" font-family="Arial, sans-serif" font-size="54" font-weight="bold" text-anchor="middle" fill="white">76</text>
    <text x="300" y="450" font-family="Arial, sans-serif" font-size="24" text-anchor="middle" fill="#b5bfcc">Applications</text>
  </g>
  
  <g>
    <text x="600" y="400" font-family="Arial, sans-serif" font-size="54" font-weight="bold" text-anchor="middle" fill="white">12</text>
    <text x="600" y="450" font-family="Arial, sans-serif" font-size="24" text-anchor="middle" fill="#b5bfcc">Projects Funded</text>
  </g>
  
  <g>
    <text x="900" y="400" font-family="Arial, sans-serif" font-size="54" font-weight="bold" text-anchor="middle" fill="white">$159k</text>
    <text x="900" y="450" font-family="Arial, sans-serif" font-size="24" text-anchor="middle" fill="#b5bfcc">Total Funding</text>
  </g>
  
  <!-- Island DAO palm tree logo (simplified) -->
  <g transform="translate(950, 520) scale(0.5)" opacity="0.15">
    <path d="M150 50C150 50 100 100 50 50C0 0 50 -50 100 0C150 50 150 50 150 50Z" fill="#bcf0c0"/>
    <rect x="90" y="50" width="20" height="120" fill="#bcf0c0"/>
    <rect x="0" y="170" width="200" height="20" fill="#bcf0c0"/>
    <rect x="40" y="200" width="120" height="15" fill="#bcf0c0"/>
    <rect x="60" y="225" width="80" height="10" fill="#bcf0c0"/>
  </g>
  
  <!-- Definitions -->
  <defs>
    <linearGradient id="gradient" x1="0%" y1="0%" x2="100%" y2="0%">
      <stop offset="0%" style="stop-color:#6366F1"/>
      <stop offset="50%" style="stop-color:#8B5CF6"/>
      <stop offset="100%" style="stop-color:#EC4899"/>
    </linearGradient>
  </defs>
</svg>